
<svg xmlns="http://www.w3.org/2000/svg"
     class="svg-snoweb svg-theme-light"
     x="0"
     y="0"
     width="100%"
     height="100%"
     viewBox="0 0 100 100"
     preserveAspectRatio="xMidYMid meet"
>
<defs>
    <style>
        
            
            
            
        

        .svg-fill-primary {
            fill: #090D49;
        }

        .svg-fill-secondary {
            fill: #65CDAE;
        }

        .svg-fill-tertiary {
            fill: #E5E7EB;
        }

        .svg-stroke-primary {
            stroke: #090D49;
        }

        .svg-stroke-secondary {
            stroke: #65CDAE;
        }

        .svg-stroke-tertiary {
            stroke: #E5E7EB;
        }
    </style>
</defs>
    <path d="M52.3,15.3a4.3,4.3,0,0,0-4.6,0l-33,18.8A4.7,4.7,0,0,0,17,42.9v33a4.7,4.7,0,0,0-4.7,4.7A4.8,4.8,0,0,0,17,85.4H83a4.8,4.8,0,0,0,4.7-4.8A4.7,4.7,0,0,0,83,75.9v-33a4.7,4.7,0,0,0,2.3-8.8ZM31.1,47.6a4.8,4.8,0,0,0-4.7,4.8V66.5a4.7,4.7,0,0,0,4.7,4.7,4.8,4.8,0,0,0,4.8-4.7V52.4A4.9,4.9,0,0,0,31.1,47.6Zm14.2,4.8a4.7,4.7,0,1,1,9.4,0V66.5a4.7,4.7,0,0,1-9.4,0Zm23.6-4.8a4.9,4.9,0,0,0-4.8,4.8V66.5a4.8,4.8,0,0,0,4.8,4.7,4.7,4.7,0,0,0,4.7-4.7V52.4A4.8,4.8,0,0,0,68.9,47.6Z"
      class="svg-fill-primary" fill-rule="evenodd"/>

</svg>